<!--
  - Copyright (c) 2024 Max Korlaar
  - All rights reserved.
  -
  - Redistribution and use in source and binary forms, with or without
  - modification, are permitted provided that the following conditions are met:
  -
  - * Redistributions of source code must retain the above copyright notice, this
  -   list of conditions and the following disclaimer.
  -
  - * Redistributions in binary form must reproduce the above copyright notice,
  -   this list of conditions, a visible attribution to the original author(s)
  -   of the software available to the public, and the following disclaimer
  -   in the documentation and/or other materials provided with the distribution.
  -
  - * Neither the name of the copyright holder nor the names of its
  -   contributors may be used to endorse or promote products derived from
  -   this software without specific prior written permission.
  -
  - THIS SOFTWARE IS PROVIDED BY THE COPYRIGHT HOLDERS AND CONTRIBUTORS "AS IS"
  - AND ANY EXPRESS OR IMPLIED WARRANTIES, INCLUDING, BUT NOT LIMITED TO, THE
  - IMPLIED WARRANTIES OF MERCHANTABILITY AND FITNESS FOR A PARTICULAR PURPOSE ARE
  - DISCLAIMED. IN NO EVENT SHALL THE COPYRIGHT HOLDER OR CONTRIBUTORS BE LIABLE
  - FOR ANY DIRECT, INDIRECT, INCIDENTAL, SPECIAL, EXEMPLARY, OR CONSEQUENTIAL
  - DAMAGES (INCLUDING, BUT NOT LIMITED TO, PROCUREMENT OF SUBSTITUTE GOODS OR
  - SERVICES; LOSS OF USE, DATA, OR PROFITS; OR BUSINESS INTERRUPTION) HOWEVER
  - CAUSED AND ON ANY THEORY OF LIABILITY, WHETHER IN CONTRACT, STRICT LIABILITY,
  - OR TORT (INCLUDING NEGLIGENCE OR OTHERWISE) ARISING IN ANY WAY OUT OF THE USE
  - OF THIS SOFTWARE, EVEN IF ADVISED OF THE POSSIBILITY OF SUCH DAMAGE.
  -->

<svg xmlns="http://www.w3.org/2000/svg" viewBox="0 0 32.58 31.77">
    <defs>
        <style>.cls-1{fill:#fff;fill-rule:evenodd;}</style>
    </defs>
    <g id="Layer_1">
        <path class="cls-1"
              d="M16.29,0a16.29,16.29,0,0,0-5.15,31.75c.82.15,1.11-.36,1.11-.79s0-1.41,0-2.77C7.7,29.18,6.74,26,6.74,26a4.36,4.36,0,0,0-1.81-2.39c-1.47-1,.12-1,.12-1a3.43,3.43,0,0,1,2.49,1.68,3.48,3.48,0,0,0,4.74,1.36,3.46,3.46,0,0,1,1-2.18c-3.62-.41-7.42-1.81-7.42-8a6.3,6.3,0,0,1,1.67-4.37,5.94,5.94,0,0,1,.16-4.31s1.37-.44,4.48,1.67a15.41,15.41,0,0,1,8.16,0c3.11-2.11,4.47-1.67,4.47-1.67A5.91,5.91,0,0,1,25,11.07a6.3,6.3,0,0,1,1.67,4.37c0,6.26-3.81,7.63-7.44,8a3.85,3.85,0,0,1,1.11,3c0,2.18,0,3.94,0,4.47s.29.94,1.12.78A16.29,16.29,0,0,0,16.29,0Z"/>
    </g>
</svg>
