<?xml version="1.0" encoding="utf-8"?>
<!--
  - Copyright (c) 2024 Max Korlaar
  - All rights reserved.
  -
  - Redistribution and use in source and binary forms, with or without
  - modification, are permitted provided that the following conditions are met:
  -
  - * Redistributions of source code must retain the above copyright notice, this
  -   list of conditions and the following disclaimer.
  -
  - * Redistributions in binary form must reproduce the above copyright notice,
  -   this list of conditions, a visible attribution to the original author(s)
  -   of the software available to the public, and the following disclaimer
  -   in the documentation and/or other materials provided with the distribution.
  -
  - * Neither the name of the copyright holder nor the names of its
  -   contributors may be used to endorse or promote products derived from
  -   this software without specific prior written permission.
  -
  - THIS SOFTWARE IS PROVIDED BY THE COPYRIGHT HOLDERS AND CONTRIBUTORS "AS IS"
  - AND ANY EXPRESS OR IMPLIED WARRANTIES, INCLUDING, BUT NOT LIMITED TO, THE
  - IMPLIED WARRANTIES OF MERCHANTABILITY AND FITNESS FOR A PARTICULAR PURPOSE ARE
  - DISCLAIMED. IN NO EVENT SHALL THE COPYRIGHT HOLDER OR CONTRIBUTORS BE LIABLE
  - FOR ANY DIRECT, INDIRECT, INCIDENTAL, SPECIAL, EXEMPLARY, OR CONSEQUENTIAL
  - DAMAGES (INCLUDING, BUT NOT LIMITED TO, PROCUREMENT OF SUBSTITUTE GOODS OR
  - SERVICES; LOSS OF USE, DATA, OR PROFITS; OR BUSINESS INTERRUPTION) HOWEVER
  - CAUSED AND ON ANY THEORY OF LIABILITY, WHETHER IN CONTRACT, STRICT LIABILITY,
  - OR TORT (INCLUDING NEGLIGENCE OR OTHERWISE) ARISING IN ANY WAY OUT OF THE USE
  - OF THIS SOFTWARE, EVEN IF ADVISED OF THE POSSIBILITY OF SUCH DAMAGE.
  -->

<!-- Generator: Adobe Illustrator 24.1.2, SVG Export Plug-In . SVG Version: 6.00 Build 0)  -->
<svg version="1.1" id="Laag_1" xmlns="http://www.w3.org/2000/svg" x="0px" y="0px"
     viewBox="0 0 249.9 203.2" style="enable-background:new 0 0 249.9 203.2;" xml:space="preserve">
<style type="text/css">
	.st0{fill:#FFFFFF;}
</style>
    <g id="Logo__x2014__FIXED">
	<g>
		<path class="st0" d="M78.5,203.2c94.3,0,145.9-78.2,145.9-145.9c0-2.2,0-4.4-0.1-6.6c10-7.2,18.7-16.3,25.6-26.6
			c-9.2,4.1-19.1,6.8-29.5,8.1C231,25.9,239.1,15.8,243,3.8c-9.9,5.9-20.9,10.1-32.6,12.4C201,6.2,187.7,0,173,0
			c-28.3,0-51.3,23-51.3,51.3c0,4,0.5,7.9,1.3,11.7C80.4,60.9,42.6,40.4,17.3,9.4c-4.4,7.6-6.9,16.4-6.9,25.8
			c0,17.8,9.1,33.5,22.8,42.7c-8.4-0.3-16.3-2.6-23.2-6.4c0,0.2,0,0.4,0,0.7c0,24.8,17.7,45.6,41.1,50.3c-4.3,1.2-8.8,1.8-13.5,1.8
			c-3.3,0-6.5-0.3-9.6-0.9c6.5,20.4,25.5,35.2,47.9,35.6c-17.6,13.8-39.7,22-63.7,22c-4.1,0-8.2-0.2-12.2-0.7
			C22.6,194.7,49.6,203.2,78.5,203.2"/>
	</g>
</g>
</svg>
